<svg xmlns="http://www.w3.org/2000/svg" viewBox="0 0 1049 169">
    <path fill="#002475" d="M475.11 119.36a32.97 32.97 0 0 0 6.05 11.16 26.7 26.7 0 0 0 9.79 7.27c3.9 1.72 8.39 2.59 13.47 2.59 4.71 0 8.9-1.05 12.58-3.13 3.67-2.09 6.46-4.44 8.36-7.07v9.11h11.42V43h-11.42v36.45c-1.9-2.63-4.67-4.92-8.3-6.87-3.62-1.95-7.84-2.92-12.64-2.92-5.08 0-9.57.86-13.47 2.58a26.61 26.61 0 0 0-9.79 7.28 32.82 32.82 0 0 0-6.05 11.15 45.92 45.92 0 0 0-2.11 14.35c0 5.25.7 10.04 2.11 14.34zm11.01-24.41A24.28 24.28 0 0 1 490.2 87a18.1 18.1 0 0 1 6.53-5.17 20.18 20.18 0 0 1 8.77-1.84c3.27 0 6.19.61 8.78 1.84A17.99 17.99 0 0 1 520.8 87a23.9 23.9 0 0 1 4.08 7.95 33.71 33.71 0 0 1 1.43 10.07c0 3.71-.47 7.09-1.43 10.13a24.09 24.09 0 0 1-4.08 7.89 18.07 18.07 0 0 1-6.52 5.16 20.2 20.2 0 0 1-8.78 1.84c-3.26 0-6.18-.61-8.77-1.84a18.18 18.18 0 0 1-6.53-5.16 24.47 24.47 0 0 1-4.08-7.89 33.88 33.88 0 0 1-1.42-10.13c0-3.63.47-6.99 1.42-10.07zm79.22-14.14h20.95v48.41h-23.67v10.07h60.39v-10.07h-25.3V70.74h-32.37zm19.18-21.69a9.2 9.2 0 0 0 6.66 2.65c2.63 0 4.85-.89 6.67-2.65a8.86 8.86 0 0 0 2.72-6.6 9.3 9.3 0 0 0-2.72-6.73 8.97 8.97 0 0 0-6.67-2.79c-2.63 0-4.85.93-6.66 2.79a9.3 9.3 0 0 0-2.72 6.73c0 2.63.91 4.83 2.72 6.6zm71.13 47.53a15.25 15.25 0 0 0-7.41 5.51 13.88 13.88 0 0 0-2.66 8.22c0 2.36.43 4.4 1.3 6.12a12.35 12.35 0 0 0 3.6 4.36 17.29 17.29 0 0 0-5.1 6.12 18.36 18.36 0 0 0-1.97 8.56c0 7.53 2.81 13.17 8.43 16.94 5.62 3.76 13.37 5.64 23.26 5.64 3.89 0 7.77-.43 11.62-1.29 3.86-.86 7.3-2.22 10.34-4.08a22.03 22.03 0 0 0 7.34-7.28c1.86-2.99 2.79-6.66 2.79-11.01 0-6.26-1.99-10.97-5.98-14.15-3.99-3.17-9.66-4.76-17-4.76h-17.82c-2.9 0-5.23-.45-7-1.36a4.55 4.55 0 0 1-2.65-4.35c0-3.08 2.08-5.44 6.25-7.07 3.63 1.9 7.84 2.85 12.65 2.85 3.45 0 6.64-.52 9.59-1.56a22.05 22.05 0 0 0 7.68-4.56 20.78 20.78 0 0 0 5.1-7.27 24.01 24.01 0 0 0 1.84-9.59c0-4.35-.95-8.16-2.86-11.42l11.56-5.99-5.17-9.38-14.28 7.34a27.19 27.19 0 0 0-13.46-3.53c-3.45 0-6.64.54-9.59 1.63a23.66 23.66 0 0 0-7.68 4.55 20.18 20.18 0 0 0-5.1 7.21 24.01 24.01 0 0 0-1.84 9.59c0 5.53 1.41 10.2 4.22 14.01zm28.29 28.69c3.62 0 6.46.75 8.5 2.25 2.04 1.49 3.06 4.15 3.06 7.95 0 3.9-1.77 6.96-5.31 9.18-3.53 2.23-8.57 3.34-15.09 3.34-6.17 0-11.09-1.14-14.76-3.4-3.67-2.27-5.51-5.44-5.51-9.52 0-2.36.46-4.4 1.36-6.12.91-1.73 2.4-3.13 4.49-4.22a39.05 39.05 0 0 0 7.07.54zm-17.48-52.56a13.62 13.62 0 0 1 9.18-3.33c3.63 0 6.71 1.11 9.25 3.33 2.54 2.22 3.81 5.51 3.81 9.86s-1.27 7.64-3.81 9.86a13.56 13.56 0 0 1-9.25 3.33c-3.54 0-6.6-1.11-9.18-3.33-2.58-2.22-3.88-5.51-3.88-9.86s1.3-7.64 3.88-9.86zm67.52-1.97h20.95v48.41h-23.67v10.07h60.39v-10.07h-25.3V70.74h-32.37zm19.18-21.69a9.2 9.2 0 0 0 6.66 2.65c2.63 0 4.85-.89 6.67-2.65a8.86 8.86 0 0 0 2.72-6.6 9.3 9.3 0 0 0-2.72-6.73 8.97 8.97 0 0 0-6.67-2.79c-2.63 0-4.85.93-6.66 2.79a9.3 9.3 0 0 0-2.72 6.73c0 2.63.91 4.83 2.72 6.6zm56.58 21.96h18.22v35.5c0 7.97 1.99 13.94 5.98 17.88 3.99 3.94 9.75 5.92 17.28 5.92 4.35 0 8.16-.68 11.42-2.04 3.26-1.36 6.48-3.63 9.66-6.8l-4.22-9.66c-2.99 3.17-5.8 5.33-8.43 6.46a21.13 21.13 0 0 1-8.43 1.7c-3.81 0-6.74-1.11-8.78-3.33-2.04-2.22-3.06-5.74-3.06-10.54V81.08h33.46V70.74h-33.46V43l-11.42 7.21v20.53h-18.22zm106.82 29.24c3.13-2.27 7.64-3.4 13.54-3.4h14.96v2.18c0 3.89-.73 7.18-2.18 9.86a19.67 19.67 0 0 1-5.44 6.46 21.48 21.48 0 0 1-7.14 3.53 26.35 26.35 0 0 1-7.14 1.09c-3.45 0-6.19-.93-8.23-2.79-2.04-1.86-3.06-4.42-3.06-7.68 0-3.9 1.57-6.98 4.69-9.25zm39.92-14.28c0-4.71-.66-8.75-1.97-12.1a20.46 20.46 0 0 0-5.58-8.16 22.93 22.93 0 0 0-8.63-4.63c-3.36-1-7.03-1.49-11.02-1.49a29 29 0 0 0-8.98 1.36 28.1 28.1 0 0 0-7.68 3.8 23.7 23.7 0 0 0-5.92 6.06 26.98 26.98 0 0 0-3.67 8.09l10.07 2.72a17.2 17.2 0 0 1 5.84-8.37c2.81-2.22 6.26-3.33 10.34-3.33 2.09 0 4.08.25 5.98.75 1.91.5 3.59 1.29 5.04 2.38a11.48 11.48 0 0 1 3.46 4.35c.87 1.82 1.3 4.04 1.3 6.67v2.99h-13.88c-4.71 0-8.97.45-12.78 1.36-3.81.9-7.07 2.29-9.79 4.15a18.82 18.82 0 0 0-6.26 7 21.38 21.38 0 0 0-2.17 9.93c0 3.53.56 6.59 1.7 9.18a18.22 18.22 0 0 0 4.62 6.46 19.52 19.52 0 0 0 6.73 3.87c2.54.87 5.26 1.3 8.16 1.3 5.17 0 9.95-1 14.35-3 4.4-1.99 7.68-4.57 9.86-7.75l1.63 9.66h9.25zm21.35-41.62V44.09h30.33v69.36c0 11.06 4.81 16.59 14.42 16.59 4.08 0 7.52-1.31 10.33-3.94 2.81-2.63 4.67-6.85 5.58-12.65l10.33 2.04c-1.27 8.34-4.19 14.57-8.77 18.7-4.58 4.12-10.4 6.19-17.47 6.19-7.98 0-14.28-2.32-18.91-6.94-4.62-4.62-6.93-11.29-6.93-19.99V54.42zM54.88 1.57c5.88 0 11.4.75 16.56 2.25a40.96 40.96 0 0 1 13.53 6.67 31.39 31.39 0 0 1 9.11 11.07c2.22 4.44 3.33 9.54 3.33 15.29 0 6.53-1.47 12.12-4.41 16.76-2.94 4.63-6.24 8.06-9.9 10.29a38.79 38.79 0 0 1 8.14 4.99 34.69 34.69 0 0 1 11.46 16.66 37.88 37.88 0 0 1 1.77 11.86c0 6.67-1.21 12.58-3.63 17.74a35.95 35.95 0 0 1-10.09 12.94 45.78 45.78 0 0 1-15.39 7.93 65.97 65.97 0 0 1-19.5 2.75H0V1.57zM34.1 28.62v23.52h17.84c5.1 0 8.72-1.08 10.88-3.24 2.15-2.15 3.23-5 3.23-8.52 0-3.53-1.08-6.37-3.23-8.53-2.16-2.16-5.98-3.23-11.47-3.23zm0 52.52v27.84h19.41c6.66 0 11.43-1.15 14.31-3.43 2.87-2.29 4.31-5.72 4.31-10.29 0-4.58-1.44-8.07-4.31-10.49-2.88-2.42-7.65-3.63-14.31-3.63zM162.68 1.57v107.41h56.45v29.79h-91.34V1.57zm109.76 137.2h-34.89V1.57h34.89zm86.63-96.04c-2.22-4.84-4.51-8.33-6.86-10.49a11.8 11.8 0 0 0-8.23-3.23c-2.61 0-4.7.72-6.27 2.15-1.57 1.44-2.35 3.47-2.35 6.08 0 3.27 1.37 6.04 4.11 8.33a52.14 52.14 0 0 0 10.29 6.47c4.12 2.02 8.59 4.18 13.43 6.47a68.35 68.35 0 0 1 13.42 8.33 42.12 42.12 0 0 1 10.29 11.95c2.75 4.71 4.12 10.52 4.12 17.45 0 6.92-1.08 13.1-3.23 18.52a37.8 37.8 0 0 1-9.31 13.82 41.32 41.32 0 0 1-14.7 8.72c-5.75 2.02-12.22 3.04-19.41 3.04-6.92 0-13.2-1.02-18.81-3.04a48.81 48.81 0 0 1-14.8-8.33 45.26 45.26 0 0 1-10.39-12.25 52.21 52.21 0 0 1-5.78-14.8l27.05-17.05c.91 3.4 2.02 6.66 3.33 9.8a33.66 33.66 0 0 0 4.8 8.23 21.92 21.92 0 0 0 6.66 5.59 17.72 17.72 0 0 0 8.53 2.05c3.4 0 6.21-.81 8.43-2.45 2.22-1.63 3.33-4.41 3.33-8.33 0-3.79-1.34-6.95-4.02-9.5a45.82 45.82 0 0 0-10.09-7.06c-4.05-2.15-8.4-4.38-13.04-6.66a70.78 70.78 0 0 1-13.03-8.33 40.77 40.77 0 0 1-10.09-12.15c-2.68-4.84-4.02-10.91-4.02-18.23 0-5.23.95-10.16 2.84-14.8a34.74 34.74 0 0 1 8.13-12.05 38.54 38.54 0 0 1 12.74-8.04A45.06 45.06 0 0 1 342.8 0c10.46 0 18.98 2.03 25.58 6.08 6.6 4.05 12.12 10.58 16.56 19.6zm57.92 92.41c3.46 3.46 7.81 5.2 13.03 5.2 5.23 0 9.58-1.74 13.04-5.2 3.46-3.46 5.19-7.81 5.19-13.03 0-5.23-1.73-9.57-5.19-13.04-3.46-3.46-7.81-5.19-13.04-5.19-5.22 0-9.57 1.73-13.03 5.19-3.46 3.47-5.19 7.81-5.19 13.04 0 5.22 1.73 9.57 5.19 13.03z"></path>
</svg>